<?xml version="1.0" encoding="UTF-8" standalone="no"?>
<!DOCTYPE svg PUBLIC "-//W3C//DTD SVG 1.1//EN" "http://www.w3.org/Graphics/SVG/1.1/DTD/svg11.dtd">
<svg width="100%" height="100%" viewBox="0 0 241 151" version="1.1" xmlns="http://www.w3.org/2000/svg" xmlns:xlink="http://www.w3.org/1999/xlink" xml:space="preserve" xmlns:serif="http://www.serif.com/" style="fill-rule:evenodd;clip-rule:evenodd;stroke-linejoin:round;stroke-miterlimit:2;">
    <g transform="matrix(1,0,0,1,5.1032,8.08177)">
        <path id="Layer_4" d="M227.625,119.631L121.678,2.974C119.975,1.088 117.538,0.011 114.997,0.011C112.455,0.011 110.019,1.088 108.315,2.969L57.451,58.983C57.085,59.383 56.419,59.128 56.419,58.584L56.419,32.957C56.419,31.953 57.234,31.137 58.239,31.137L68.277,31.137C73.954,31.137 78.56,26.531 78.56,20.854L78.56,11.476C78.56,7.331 75.386,3.762 71.246,3.557C66.824,3.341 63.161,6.876 63.161,11.248L63.161,15.116L58.239,15.116C57.234,15.116 56.419,14.3 56.419,13.296L56.419,10.588C56.419,4.739 51.68,0 45.831,0L44.155,0C38.328,0 33.561,4.767 33.561,10.594L33.561,44.561C33.561,45.565 32.745,46.381 31.741,46.381L22.579,46.381L22.579,38.468C22.579,32.73 18.123,27.841 12.391,27.63C6.364,27.408 1.398,32.241 1.398,38.218L1.398,53.795C1.398,61.947 8.029,68.572 16.175,68.572L31.741,68.572C32.745,68.572 33.561,69.388 33.561,70.393L33.561,81.813C33.561,84.055 32.729,86.214 31.219,87.867L26.691,92.856L2.369,119.637C-0.067,122.323 -0.672,126.046 0.793,129.359C2.258,132.678 5.421,134.736 9.05,134.736L220.944,134.736C224.573,134.736 227.736,132.678 229.201,129.359C230.666,126.041 230.061,122.323 227.625,119.631ZM56.419,21.22L65.669,21.22C67.65,21.22 69.265,19.611 69.265,17.625L69.265,11.248C69.265,10.366 69.981,9.65 70.858,9.65C71.74,9.65 72.456,10.366 72.456,11.248L72.456,20.854C72.456,23.157 70.58,25.033 68.277,25.033L56.419,25.033L56.419,21.22ZM192.259,89.776L206.305,105.242C207.015,106.024 206.46,107.301 205.406,107.284L205.378,107.284C203.957,107.268 202.048,107.079 199.845,106.857C193.031,106.18 183.025,105.17 172.482,107.922C171.638,108.144 170.806,107.534 170.767,106.663C170.639,103.644 170.051,100.126 168.669,96.191C168.348,95.276 168.947,94.299 169.912,94.188C176.76,93.433 183.131,91.724 188.924,89.094C190.067,88.572 191.416,88.849 192.259,89.776ZM178.597,74.727L185.55,82.385C186.044,82.923 185.844,83.777 185.173,84.06C179.513,86.452 173.242,87.901 166.472,88.367L166.461,88.367C165.656,88.417 164.89,88.017 164.48,87.329C162.715,84.355 160.49,81.23 157.71,77.962C156.91,77.018 156.056,76.058 155.151,75.093C154.891,74.81 154.741,74.438 154.741,74.055L154.741,73.889L175.684,73.472C176.794,73.456 177.853,73.911 178.597,74.727ZM156.444,50.337L169.53,64.749C170.484,65.803 169.757,67.49 168.336,67.518L137.943,68.123C137.366,68.134 136.833,67.768 136.667,67.213C136.323,66.086 135.89,64.993 135.385,63.944C135.107,63.373 135.291,62.685 135.807,62.313L153.076,49.977C154.13,49.228 155.579,49.383 156.444,50.337ZM152.543,73.933C152.543,74.316 152.393,74.693 152.133,74.971C151.189,75.981 150.296,76.974 149.458,77.962C147.693,80.037 145.118,83.494 144.008,84.937C143.853,85.137 143.637,85.276 143.387,85.326C143.32,85.337 143.254,85.342 143.193,85.342C143.032,85.342 142.871,85.309 142.727,85.237C140.962,84.382 139.197,83.611 137.438,82.928C136.633,82.612 136.234,81.719 136.506,80.897C137.083,79.155 137.449,77.318 137.588,75.42C137.638,74.743 138.193,74.222 138.87,74.21L152.543,73.933ZM137.527,29.506L150.79,44.111L132.155,57.424C131.65,57.785 130.957,57.746 130.501,57.318C129.07,55.97 127.46,54.805 125.718,53.861C125.146,53.551 124.891,52.862 125.119,52.252L133.254,30.327C133.914,28.54 136.239,28.09 137.527,29.506ZM130.801,78.717C130.479,79.738 129.419,80.342 128.376,80.093C118.992,77.845 109.797,77.712 101.04,78.755C99.992,78.883 99.015,78.173 98.798,77.141C98.576,76.064 98.454,74.954 98.454,73.811C98.454,64.344 106.445,56.708 116.04,57.296C124.142,57.79 130.79,64.272 131.489,72.357C131.672,74.582 131.417,76.73 130.801,78.717ZM101.529,19.522L112.833,7.07C113.393,6.454 114.164,6.115 114.997,6.115C115.829,6.115 116.601,6.454 117.161,7.075L128.465,19.522C129.458,20.616 129.763,22.175 129.247,23.568L119.259,50.498C119.048,51.07 118.471,51.425 117.86,51.347C116.922,51.225 115.968,51.164 114.997,51.164C114.026,51.164 113.071,51.231 112.133,51.347C111.529,51.425 110.951,51.076 110.735,50.498L100.746,23.568C100.23,22.18 100.53,20.621 101.529,19.522ZM92.467,29.5C93.749,28.085 96.079,28.534 96.745,30.327L104.88,52.252C105.108,52.862 104.853,53.551 104.281,53.861C102.539,54.805 100.929,55.97 99.498,57.318C99.043,57.746 98.349,57.785 97.844,57.424L79.21,44.111L92.467,29.5ZM59.876,65.393L73.544,50.337C74.415,49.383 75.858,49.228 76.912,49.977L94.181,62.313C94.698,62.685 94.886,63.373 94.603,63.944C94.093,64.993 93.665,66.081 93.321,67.213C93.149,67.768 92.622,68.134 92.045,68.123L60.775,67.485C59.704,67.457 59.154,66.186 59.876,65.393ZM56.419,75.725C56.419,74.505 57.423,73.517 58.644,73.545L91.124,74.205C91.801,74.216 92.361,74.749 92.406,75.426C92.478,76.436 92.617,77.429 92.816,78.4C92.999,79.283 92.45,80.148 91.568,80.337C81.446,82.479 72.079,85.825 63.894,88.755C62.145,89.382 60.475,89.976 58.883,90.531C57.678,90.953 56.419,90.059 56.419,88.783L56.419,75.725ZM56.419,99.698C56.419,98.566 57.14,97.567 58.211,97.207C60.68,96.385 63.272,95.453 65.947,94.493C85.414,87.54 111.85,78.084 138.237,89.876C139.575,90.475 140.163,92.051 139.586,93.394C138.015,97.062 137.138,100.409 136.711,103.389C136.628,103.949 136.04,104.265 135.524,104.038C112.267,94.005 82.173,101.38 58.633,107.956C57.517,108.266 56.419,107.428 56.419,106.274L56.419,99.698ZM39.665,100.225L39.665,10.588C39.665,8.113 41.674,6.104 44.149,6.104L45.831,6.104C48.306,6.104 50.314,8.113 50.314,10.588L50.314,108.866C50.314,109.715 49.748,110.464 48.927,110.691C46.474,111.374 44.171,112.007 42.018,112.556C40.82,112.861 39.66,111.951 39.66,110.719L39.66,100.225L39.665,100.225ZM16.175,62.463C11.392,62.463 7.502,58.573 7.502,53.789L7.502,38.212C7.502,35.737 9.516,33.723 11.991,33.723C14.466,33.723 16.475,35.737 16.475,38.212L16.475,48.556C16.475,50.72 18.24,52.485 20.409,52.485L33.561,52.485L33.561,62.463L16.175,62.463ZM18.928,110.492L26.952,101.646C28.622,99.809 31.125,98.916 33.561,99.354L33.561,111.59C33.561,113.205 32.307,114.548 30.698,114.659C27.002,114.909 23.423,114.648 19.965,113.866C18.445,113.51 17.879,111.64 18.928,110.492ZM117.072,128.632L9.05,128.632C7.28,128.632 6.553,127.3 6.375,126.89C6.192,126.485 5.698,125.047 6.886,123.743L10.01,120.303C11.331,118.849 13.367,118.305 15.232,118.899C22.246,121.135 29.749,121.457 37.595,119.859C42.545,118.849 48.417,117.19 55.214,115.27C70.741,110.88 89.992,105.436 107.91,105.236C110.063,105.214 111.978,106.607 112.561,108.671C114.303,114.837 116.528,120.258 119.22,124.892C120.185,126.551 118.992,128.632 117.072,128.632ZM146.683,124.626C146.439,124.92 146.195,125.214 145.956,125.508C144.358,127.5 141.916,128.627 139.364,128.627L134.769,128.627C131.068,128.627 127.616,126.751 125.607,123.638C122.716,119.154 120.341,113.694 118.515,107.295C118.304,106.557 118.92,105.852 119.68,105.963C125.102,106.746 130.274,108.205 135.035,110.531C135.546,110.78 136.056,111.041 136.556,111.313C138.093,112.145 139.575,113.067 140.979,114.071C141.828,114.681 142.66,115.32 143.465,115.997C144.502,116.868 145.501,117.789 146.461,118.771C148.032,120.38 148.12,122.905 146.683,124.626ZM152.427,116.219C150.035,113.522 147.388,111.141 144.525,109.104C144.463,109.06 144.408,109.021 144.347,108.977C143.148,108.128 142.477,106.713 142.632,105.248C142.993,101.896 144.064,97.817 146.45,93.145C147.36,91.369 148.464,89.499 149.796,87.551C150.684,86.247 151.672,84.909 152.776,83.533C153.187,83.017 153.986,83.017 154.402,83.533C155.756,85.22 156.944,86.857 157.982,88.433C159.408,90.609 160.556,92.678 161.466,94.632C163.941,99.931 164.696,104.399 164.724,107.839C164.735,109.515 163.797,111.047 162.315,111.823L162.293,111.835C159.785,113.139 157.382,114.687 155.09,116.463C154.275,117.095 153.109,116.99 152.427,116.219ZM168.348,128.632L156.184,128.632C154.269,128.632 153.298,126.307 154.663,124.959C157.865,121.784 161.367,119.21 165.118,117.251C165.262,117.173 165.412,117.095 165.562,117.023C166.949,116.313 168.403,115.68 169.896,115.131C170.434,114.931 170.978,114.742 171.522,114.565C175.145,113.377 178.73,112.739 182.171,112.428C182.992,112.356 183.569,113.222 183.197,113.96C181.189,117.917 179.013,121.435 176.683,124.481C174.69,127.078 171.622,128.632 168.348,128.632ZM223.618,126.89C223.441,127.3 222.714,128.632 220.944,128.632L183.553,128.632C182.581,128.632 182.027,127.539 182.593,126.751C185.14,123.216 187.498,119.182 189.646,114.676C190.35,113.194 191.888,112.301 193.519,112.417C195.556,112.562 197.476,112.75 199.235,112.928C201.588,113.166 203.613,113.372 205.311,113.388C207.154,113.394 209.002,113.211 210.844,112.811C212.07,112.55 213.341,112.989 214.185,113.916L223.108,123.743C224.295,125.042 223.801,126.485 223.618,126.89Z" style="fill:rgb(248,153,52);fill-rule:nonzero;stroke:rgb(248,153,52);stroke-width:1px;"/>
    </g>
</svg>
