<svg xmlns="http://www.w3.org/2000/svg" viewBox="82.4099942016602 123.5 410.1800231933594 326.9442672729492"> <svg xmlns="http://www.w3.org/2000/svg" xmlns:xlink="http://www.w3.org/1999/xlink" version="1.1" x="172.50321197509766" y="193.5" viewBox="42.778934478759766 128.59999084472656 414.442138671875 242.8000030517578" xml:space="preserve" height="134.7364501953125" width="229.9936065673828" preserveAspectRatio="xMinYMin" enable-background="new 0 0 500 500" style="overflow: visible;"><path id="Layer_2" class="st0" d="M262.02,365.49l4.53-3.17l-20.6-49.13c0,0-61.81,5.77-105.28,18.11s-76.08,4.98-76.08,4.98l-16.3,16.3   c0,0-2.04,13.92,9.51,14.49S262.02,365.49,262.02,365.49z" style="fill: #AA8976;"></path><path id="Layer_2" class="st0" d="M358.7,364.47l26.72-37.81c0,0,41.89-1.02,43.02,0c1.13,1.02,23.09,25.36,23.09,25.36s4.98,11.32-15.4,13.81   C415.75,368.32,358.7,364.47,358.7,364.47z" style="fill: #AA8976;"></path><path id="Layer_2" class="st1" d="M108.74,336.06v-32.83l-13.81,2.04c0,0-10.75,3.17-12.45,7.7c-1.7,4.53-13.47,13.92-12.91,15.85   c0.57,1.92,8.38,9.96,8.38,9.96s10.64,0.91,15.4,0.91s15.85-1.58,15.85-1.58L108.74,336.06z" style="fill: #D3B5A1;"></path><path id="Layer_2" class="st1" d="M139.53,329.26v-28.08c0,0,109.02-46.42,160.53-11.77l-7.02,31.92c0,0-46.87-13.47-77.43-7.02   c-30.57,6.45-64.75,14.94-64.75,14.94H139.53z" style="fill: #D3B5A1;"></path><path id="Layer_2" class="st1" d="M346.47,330.51l-5.21-35.55l46.42-12.23l38.94,41.43c0,0-10.87,2.49-30.34,2.49s-36.45,0.45-36.45,0.45   L346.47,330.51z" style="fill: #D3B5A1;"></path><path id="Layer_2" class="st2" d="M270.4,362.77c0,0-15.28-16.64-19.47-47.77c0,0,27.17-2.83,42.57,8.83c0,0,7.36-44.38,26.72-52.08   c0,0,22.53,19.02,24.23,55.02l4.75,2.94c0,0,26.6-6.34,29.89-0.68c3.28,5.66-20.38,35.43-20.38,35.43L270.4,362.77z" style="fill: #70AF85;"></path><path id="Layer_2" class="st3" d="M212.96,255.83c-2.42,0-66.72-0.91-66.72-0.91s-1.81-8.3,0.3-9.66s28.08-31.7,28.08-31.7l20.83,7.85   l23.7,17.66l21.74-12.68c0,0,25.51,6.64,27.62,7.09c2.11,0.45,11.77,8.15,12.68,6.94c0.91-1.21,42.11-29.28,42.57-28.38   c0.45,0.91,33.51,41.96,33.51,41.96s-47.7,3.47-49.51,3.32c-1.81-0.15-18.72-0.6-18.72-0.6L212.96,255.83z" style="fill: #F89934;"></path><path id="Layer_2" class="st2" d="M110.62,335.53l-3.02-87.85l-36.53-0.3c0,0-18.57-5.43-19.92-17.81c-1.36-12.38,2.72-42.26,2.72-42.26   l16.6-1.81l6.04,6.64l1.51,25.36l30.19-0.6l1.81-77.28l14.19-6.04l12.38,4.83l3.32,19.62l22.04,2.42l0.91-16.3l8.75-3.62l7.85,4.83   L177.94,171c0,0-5.28,7.55-16.91,8.75s-21.13-0.3-21.13-0.3l-0.38,149.81L110.62,335.53z" style="fill: #70AF85;"></path><path id="Layer_2" class="st4" d="M219.15,239.08l-41.06-30.49l36.83-38.64l73.96,3.32c0,0,33.21,35.02,32,35.62   c-1.21,0.6-41.36,29.28-41.36,29.28l-22.64-11.47l-19.02,1.21L219.15,239.08z" style="fill: #F58B33;"></path><polygon id="Layer_2" class="st5" points="240.89,226.4 216.13,167.23 250.25,132.21 280.13,166.62 261.42,226.7  " style="fill: #F47637;"></polygon><path id="Layer_2" class="st6" d="M216.28,275.91c-0.91,0.15-72.15,23.25-72.15,23.25l-3.92-16.6l3.92-27.77l66.72,1.81l4.53,11.77   L216.28,275.91z" style="fill: #FEC459;"></path><path id="Layer_2" class="st6" d="M281.19,279.53c1.06-0.3,6.19-24.45,7.85-22.79c1.66,1.66,73.06-1.36,74.87-0.75   c1.81,0.6,21.13,25.96,21.13,25.96s-19.32,7.25-21.74,8.15c-2.42,0.91-22.34,1.81-22.34,1.81l-8.45-9.36l-12.3-10.79l-15.77,17.43   L281.19,279.53z" style="fill: #FEC459;"></path><path id="Layer_2" class="st7" d="M216.28,275.91l-1.21-23.25l19.32-23.55l22.49-2.42l24.3,13.74c0,0,3.92,18.57,3.92,19.47   c0,0.91-3.92,19.62-3.92,19.62L251,273.79L216.28,275.91z" style="fill: #FCE197;"></path><path id="Layer_4" class="st8" d="M452.96,344.18L262.04,133.96c-3.07-3.4-7.46-5.34-12.04-5.34s-8.97,1.94-12.04,5.33L146.3,234.89   c-0.66,0.72-1.86,0.26-1.86-0.72v-46.18c0-1.81,1.47-3.28,3.28-3.28h18.09c10.23,0,18.53-8.3,18.53-18.53v-16.9   c0-7.47-5.72-13.9-13.18-14.27c-7.97-0.39-14.57,5.98-14.57,13.86v6.97h-8.87c-1.81,0-3.28-1.47-3.28-3.28v-4.88   c0-10.54-8.54-19.08-19.08-19.08h-3.02c-10.5,0-19.09,8.59-19.09,19.09v61.21c0,1.81-1.47,3.28-3.28,3.28H83.46v-14.26   c0-10.34-8.03-19.15-18.36-19.53c-10.86-0.4-19.81,8.31-19.81,19.08v28.07c0,14.69,11.95,26.63,26.63,26.63h28.05   c1.81,0,3.28,1.47,3.28,3.28v20.58c0,4.04-1.5,7.93-4.22,10.91l-8.16,8.99l-43.83,48.26c-4.39,4.84-5.48,11.55-2.84,17.52   c2.64,5.98,8.34,9.69,14.88,9.69h381.84c6.54,0,12.24-3.71,14.88-9.69C458.44,355.73,457.35,349.03,452.96,344.18z M144.44,166.84   h16.67c3.57,0,6.48-2.9,6.48-6.48v-11.49c0-1.59,1.29-2.88,2.87-2.88c1.59,0,2.88,1.29,2.88,2.88v17.31c0,4.15-3.38,7.53-7.53,7.53   h-21.37V166.84z M389.23,290.38l25.31,27.87c1.28,1.41,0.28,3.71-1.62,3.68h-0.05c-2.56-0.03-6-0.37-9.97-0.77   c-12.28-1.22-30.31-3.04-49.31,1.92c-1.52,0.4-3.02-0.7-3.09-2.27c-0.23-5.44-1.29-11.78-3.78-18.87c-0.58-1.65,0.5-3.41,2.24-3.61   c12.34-1.36,23.82-4.44,34.26-9.18C385.28,288.21,387.71,288.71,389.23,290.38z M364.61,263.26l12.53,13.8   c0.89,0.97,0.53,2.51-0.68,3.02c-10.2,4.31-21.5,6.92-33.7,7.76c-0.01,0-0.02,0-0.02,0c-1.45,0.09-2.83-0.63-3.57-1.87   c-3.18-5.36-7.19-10.99-12.2-16.88c-1.44-1.7-2.98-3.43-4.61-5.17c-0.47-0.51-0.74-1.18-0.74-1.87v-0.3l37.74-0.75   C361.36,260.97,363.27,261.79,364.61,263.26z M324.69,219.31l23.58,25.97c1.72,1.9,0.41,4.94-2.15,4.99l-54.77,1.09   c-1.04,0.02-2-0.64-2.3-1.64c-0.62-2.03-1.4-4-2.31-5.89c-0.5-1.03-0.17-2.27,0.76-2.94l31.12-22.23   C320.52,217.31,323.13,217.59,324.69,219.31z M317.66,261.83c0,0.69-0.27,1.37-0.74,1.87c-1.7,1.82-3.31,3.61-4.82,5.39   c-3.18,3.74-7.82,9.97-9.82,12.57c-0.28,0.36-0.67,0.61-1.12,0.7c-0.12,0.02-0.24,0.03-0.35,0.03c-0.29,0-0.58-0.06-0.84-0.19   c-3.18-1.54-6.36-2.93-9.53-4.16c-1.45-0.57-2.17-2.18-1.68-3.66c1.04-3.14,1.7-6.45,1.95-9.87c0.09-1.22,1.09-2.16,2.31-2.18   L317.66,261.83z M290.6,181.77l23.9,26.32l-33.58,23.99c-0.91,0.65-2.16,0.58-2.98-0.19c-2.58-2.43-5.48-4.53-8.62-6.23   c-1.03-0.56-1.49-1.8-1.08-2.9l14.66-39.51C284.09,180.03,288.28,179.22,290.6,181.77z M278.48,270.45   c-0.58,1.84-2.49,2.93-4.37,2.48c-16.91-4.05-33.48-4.29-49.26-2.41c-1.89,0.23-3.65-1.05-4.04-2.91c-0.4-1.94-0.62-3.94-0.62-6   c0-17.06,14.4-30.82,31.69-29.76c14.6,0.89,26.58,12.57,27.84,27.14C280.05,263,279.59,266.87,278.48,270.45z M225.73,163.78   l20.37-22.44c1.01-1.11,2.4-1.72,3.9-1.72s2.89,0.61,3.9,1.73l20.37,22.43c1.79,1.97,2.34,4.78,1.41,7.29l-18,48.53   c-0.38,1.03-1.42,1.67-2.52,1.53c-1.69-0.22-3.41-0.33-5.16-0.33c-1.75,0-3.47,0.12-5.16,0.33c-1.09,0.14-2.13-0.49-2.52-1.53   l-18-48.53C223.39,168.57,223.93,165.76,225.73,163.78z M209.4,181.76c2.31-2.55,6.51-1.74,7.71,1.49l14.66,39.51   c0.41,1.1-0.05,2.34-1.08,2.9c-3.14,1.7-6.04,3.8-8.62,6.23c-0.82,0.77-2.07,0.84-2.98,0.19l-33.58-23.99L209.4,181.76z    M150.67,246.44l24.63-27.13c1.57-1.72,4.17-2,6.07-0.65l31.12,22.23c0.93,0.67,1.27,1.91,0.76,2.94   c-0.92,1.89-1.69,3.85-2.31,5.89c-0.31,1-1.26,1.66-2.3,1.64l-56.35-1.15C150.36,250.16,149.37,247.87,150.67,246.44z    M144.44,265.06c0-2.2,1.81-3.98,4.01-3.93l58.53,1.19c1.22,0.02,2.23,0.98,2.31,2.2c0.13,1.82,0.38,3.61,0.74,5.36   c0.33,1.59-0.66,3.15-2.25,3.49c-18.24,3.86-35.12,9.89-49.87,15.17c-3.15,1.13-6.16,2.2-9.03,3.2c-2.17,0.76-4.44-0.85-4.44-3.15   V265.06z M144.44,308.26c0-2.04,1.3-3.84,3.23-4.49c4.45-1.48,9.12-3.16,13.94-4.89c35.08-12.53,82.72-29.57,130.27-8.32   c2.41,1.08,3.47,3.92,2.43,6.34c-2.83,6.61-4.41,12.64-5.18,18.01c-0.15,1.01-1.21,1.58-2.14,1.17   c-41.91-18.08-96.14-4.79-138.56,7.06c-2.01,0.56-3.99-0.95-3.99-3.03V308.26z M114.25,309.21V298.2v-11.64v-16.38V147.68   c0-4.46,3.62-8.08,8.08-8.08h3.03c4.46,0,8.08,3.62,8.08,8.08v101.36v16.38v31.18v11.32v16.86c0,1.53-1.02,2.88-2.5,3.29   c-4.42,1.23-8.57,2.37-12.45,3.36c-2.16,0.55-4.25-1.09-4.25-3.31V309.21z M71.92,241.16c-8.62,0-15.63-7.01-15.63-15.63v-28.07   c0-4.46,3.63-8.09,8.09-8.09s8.08,3.63,8.08,8.09v18.64c0,3.9,3.18,7.08,7.09,7.08h23.7v17.98H71.92z M76.88,327.71l14.46-15.94   c3.01-3.31,7.52-4.92,11.91-4.13v22.05c0,2.91-2.26,5.33-5.16,5.53c-6.66,0.45-13.11-0.02-19.34-1.43   C76.01,333.15,74.99,329.78,76.88,327.71z M253.74,360.4H59.08c-3.19,0-4.5-2.4-4.82-3.14c-0.33-0.73-1.22-3.32,0.92-5.67l5.63-6.2   c2.38-2.62,6.05-3.6,9.41-2.53c12.64,4.03,26.16,4.61,40.3,1.73c8.92-1.82,19.5-4.81,31.75-8.27   c27.98-7.91,62.67-17.72,94.96-18.08c3.88-0.04,7.33,2.47,8.38,6.19c3.14,11.11,7.15,20.88,12,29.23   C259.35,356.65,257.2,360.4,253.74,360.4z M307.1,353.18c-0.44,0.53-0.88,1.06-1.31,1.59c-2.88,3.59-7.28,5.62-11.88,5.62h-8.28   c-6.67,0-12.89-3.38-16.51-8.99c-5.21-8.08-9.49-17.92-12.78-29.45c-0.38-1.33,0.73-2.6,2.1-2.4c9.77,1.41,19.09,4.04,27.67,8.23   c0.92,0.45,1.84,0.92,2.74,1.41c2.77,1.5,5.44,3.16,7.97,4.97c1.53,1.1,3.03,2.25,4.48,3.47c1.87,1.57,3.67,3.23,5.4,5   C309.53,345.53,309.69,350.08,307.1,353.18z M317.45,338.03c-4.31-4.86-9.08-9.15-14.24-12.82c-0.11-0.08-0.21-0.15-0.32-0.23   c-2.16-1.53-3.37-4.08-3.09-6.72c0.65-6.04,2.58-13.39,6.88-21.81c1.64-3.2,3.63-6.57,6.03-10.08c1.6-2.35,3.38-4.76,5.37-7.24   c0.74-0.93,2.18-0.93,2.93,0c2.44,3.04,4.58,5.99,6.45,8.83c2.57,3.92,4.64,7.65,6.28,11.17c4.46,9.55,5.82,17.6,5.87,23.8   c0.02,3.02-1.67,5.78-4.34,7.18l-0.04,0.02c-4.52,2.35-8.85,5.14-12.98,8.34C320.78,339.61,318.68,339.42,317.45,338.03z    M346.14,360.4h-21.92c-3.45,0-5.2-4.19-2.74-6.62c5.77-5.72,12.08-10.36,18.84-13.89c0.26-0.14,0.53-0.28,0.8-0.41   c2.5-1.28,5.12-2.42,7.81-3.41c0.97-0.36,1.95-0.7,2.93-1.02c6.53-2.14,12.99-3.29,19.19-3.85c1.48-0.13,2.52,1.43,1.85,2.76   c-3.62,7.13-7.54,13.47-11.74,18.96C357.57,357.6,352.04,360.4,346.14,360.4z M445.74,357.26c-0.32,0.74-1.63,3.14-4.82,3.14   h-67.38c-1.75,0-2.75-1.97-1.73-3.39c4.59-6.37,8.84-13.64,12.71-21.76c1.27-2.67,4.04-4.28,6.98-4.07   c3.67,0.26,7.13,0.6,10.3,0.92c4.24,0.43,7.89,0.8,10.95,0.83c3.32,0.01,6.65-0.32,9.97-1.04c2.21-0.47,4.5,0.32,6.02,1.99   l16.08,17.71C446.96,353.93,446.07,356.53,445.74,357.26z" style="fill: #331E14;"></path></svg> <svg y="343" viewBox="0.05000000447034836 27.76573371887207 270.1800231933594 37.44426727294922" x="152.4099942016602" height="37.44426727294922" width="270.1800231933594" xmlns="http://www.w3.org/2000/svg" style="overflow: visible;"><g fill="#331E14" fill-opacity="1" style=""><path d="M13.41 64.70L13.41 64.70L7.43 64.70Q7.19 64.70 7.19 64.44L7.19 64.44L7.19 34.21L0.31 34.21Q0.05 34.21 0.05 33.95L0.05 33.95L0.10 28.03Q0.10 27.82 0.31 27.82L0.31 27.82L20.44 27.82Q20.73 27.82 20.73 28.03L20.73 28.03L20.73 33.95Q20.73 34.21 20.52 34.21L20.52 34.21L13.56 34.21L13.61 64.44Q13.61 64.70 13.41 64.70ZM36.23 65.21L36.23 65.21Q33.43 65.21 31.05 63.77L31.05 63.77Q28.67 62.32 27.26 59.87Q25.85 57.43 25.85 54.53L25.85 54.53L25.95 28.03Q25.95 27.82 26.16 27.82L26.16 27.82L32.11 27.82Q32.32 27.82 32.32 28.03L32.32 28.03L32.32 54.53Q32.32 56.31 33.46 57.57Q34.60 58.82 36.23 58.82L36.23 58.82Q37.94 58.82 39.07 57.57Q40.21 56.31 40.21 54.53L40.21 54.53L40.21 28.03Q40.21 27.82 40.42 27.82L40.42 27.82L46.37 27.82Q46.58 27.82 46.58 28.03L46.58 28.03L46.68 54.53Q46.68 57.45 45.28 59.91L45.28 59.91Q43.86 62.34 41.51 63.78Q39.15 65.21 36.23 65.21ZM60.24 64.70L60.24 64.70L54.24 64.70Q54.03 64.70 54.03 64.44L54.03 64.44L54.13 28.03Q54.13 27.82 54.34 27.82L54.34 27.82L60.81 27.82Q61.02 27.82 61.17 28.03L61.17 28.03L66.01 35.01L70.82 28.03Q70.98 27.82 71.21 27.82L71.21 27.82L77.71 27.82Q77.94 27.82 77.94 28.03L77.94 28.03L78.04 64.44Q78.04 64.70 77.84 64.70L77.84 64.70L71.83 64.70Q71.63 64.70 71.63 64.44L71.63 64.44L71.57 37.40L66.01 45.47L60.50 37.40L60.45 64.44Q60.45 64.70 60.24 64.70ZM95.35 64.70L95.35 64.70L85.86 64.70Q85.65 64.70 85.65 64.44L85.65 64.44L85.75 28.03Q85.75 27.82 85.96 27.82L85.96 27.82L96.16 27.82Q99.13 27.82 101.57 29.27L101.57 29.27Q103.95 30.72 105.32 33.11Q106.69 35.51 106.69 38.30L106.69 38.30Q106.69 40.58 105.65 42.54Q104.62 44.51 103.20 45.73L103.20 45.73Q104.72 47.25 105.58 49.27Q106.43 51.29 106.43 53.52L106.43 53.52Q106.43 56.60 104.96 59.13L104.96 59.13Q103.45 61.67 100.94 63.18Q98.43 64.70 95.35 64.70ZM96.16 34.11L96.16 34.11L92.12 34.11L92.12 42.44L96.16 42.44Q97.99 42.44 99.13 41.13Q100.27 39.83 100.27 38.30L100.27 38.30Q100.27 36.62 99.06 35.36Q97.84 34.11 96.16 34.11ZM95.35 48.86L95.35 48.86L92.12 48.86L92.07 58.23L95.35 58.23Q97.27 58.23 98.64 56.83Q100.01 55.43 100.01 53.52L100.01 53.52Q100.01 51.60 98.64 50.23Q97.27 48.86 95.35 48.86ZM130.75 64.70L130.75 64.70L113.62 64.70Q113.41 64.70 113.41 64.44L113.41 64.44L113.47 28.08Q113.47 27.82 113.73 27.82L113.73 27.82L119.63 27.82Q119.88 27.82 119.88 28.08L119.88 28.08L119.83 58.18L130.75 58.18Q131.01 58.18 131.01 58.43L131.01 58.43L131.01 64.44Q131.01 64.70 130.75 64.70ZM154.97 64.70L154.97 64.70L137.84 64.70Q137.63 64.70 137.63 64.44L137.63 64.44L137.69 28.03Q137.69 27.82 137.89 27.82L137.89 27.82L154.92 27.82Q155.13 27.82 155.13 28.08L155.13 28.08L155.13 34.00Q155.13 34.21 154.92 34.21L154.92 34.21L144.05 34.21L144.05 42.49L154.92 42.49Q155.13 42.49 155.13 42.70L155.13 42.70L155.18 48.70Q155.18 48.91 154.97 48.91L154.97 48.91L144.05 48.91L144.05 58.18L154.97 58.18Q155.18 58.18 155.18 58.43L155.18 58.43L155.18 64.49Q155.18 64.70 154.97 64.70ZM173.32 64.70L173.32 64.70L166.90 64.70Q166.67 64.70 166.64 64.44L166.64 64.44L160.38 28.03Q160.33 27.82 160.53 27.82L160.53 27.82L166.49 27.82Q166.69 27.82 166.75 28.03L166.75 28.03L170.14 51.96L173.63 28.03Q173.68 27.82 173.94 27.82L173.94 27.82L178.73 27.82Q178.93 27.82 178.99 28.03L178.99 28.03L182.43 51.96L185.87 28.03Q185.92 27.82 186.13 27.82L186.13 27.82L192.03 27.82Q192.29 27.82 192.24 28.03L192.24 28.03L185.92 64.44Q185.90 64.54 185.77 64.62L185.77 64.62L185.66 64.70L179.24 64.70Q179.09 64.70 178.99 64.44L178.99 64.44L176.27 45.42L173.58 64.44Q173.55 64.70 173.32 64.70ZM215.86 64.70L215.86 64.70L198.73 64.70Q198.52 64.70 198.52 64.44L198.52 64.44L198.57 28.03Q198.57 27.82 198.78 27.82L198.78 27.82L215.81 27.82Q216.02 27.82 216.02 28.08L216.02 28.08L216.02 34.00Q216.02 34.21 215.81 34.21L215.81 34.21L204.94 34.21L204.94 42.49L215.81 42.49Q216.02 42.49 216.02 42.70L216.02 42.70L216.07 48.70Q216.07 48.91 215.86 48.91L215.86 48.91L204.94 48.91L204.94 58.18L215.86 58.18Q216.07 58.18 216.07 58.43L216.07 58.43L216.07 64.49Q216.07 64.70 215.86 64.70ZM241.30 64.70L241.30 64.70L224.16 64.70Q223.96 64.70 223.96 64.44L223.96 64.44L224.01 28.03Q224.01 27.82 224.22 27.82L224.22 27.82L241.24 27.82Q241.45 27.82 241.45 28.08L241.45 28.08L241.45 34.00Q241.45 34.21 241.24 34.21L241.24 34.21L230.38 34.21L230.38 42.49L241.24 42.49Q241.45 42.49 241.45 42.70L241.45 42.70L241.50 48.70Q241.50 48.91 241.30 48.91L241.30 48.91L230.38 48.91L230.38 58.18L241.30 58.18Q241.50 58.18 241.50 58.43L241.50 58.43L241.50 64.49Q241.50 64.70 241.30 64.70ZM259.15 64.65L259.15 64.65L249.65 64.70Q249.39 64.70 249.39 64.44L249.39 64.44L249.50 28.03Q249.50 27.82 249.70 27.82L249.70 27.82L259.62 27.77Q262.57 27.69 264.95 29.11L264.95 29.11Q267.35 30.54 268.79 32.96Q270.23 35.38 270.23 38.30L270.23 38.30L270.23 53.52Q270.23 56.57 268.75 59.11L268.75 59.11Q267.25 61.62 264.77 63.11Q262.28 64.59 259.15 64.65ZM259.62 34.11L259.62 34.11L255.91 34.16L255.86 58.18L259.15 58.18Q261.12 58.18 262.46 56.80Q263.81 55.43 263.81 53.52L263.81 53.52L263.81 38.25Q263.81 36.57 262.57 35.31Q261.32 34.06 259.62 34.11Z" transform="translate(0, 0)"></path></g></svg></svg>